<?xml version="1.0" standalone="no"?>
<!DOCTYPE svg PUBLIC "-//W3C//DTD SVG 20010904//EN"
 "http://www.w3.org/TR/2001/REC-SVG-20010904/DTD/svg10.dtd">
<svg version="1.0" xmlns="http://www.w3.org/2000/svg"
 width="709.000000pt" height="709.000000pt" viewBox="0 0 709.000000 709.000000"
 preserveAspectRatio="xMidYMid meet">
<metadata>
Created by potrace 1.11, written by Peter Selinger 2001-2013
</metadata>
<g transform="translate(0.000000,709.000000) scale(0.100000,-0.100000)"
fill="#000000" stroke="none">
<path d="M0 3775 l0 -875 1331 0 1331 0 -4 25 c-3 14 -2 25 2 25 4 0 7 -111 6
-247 l0 -248 879 -3 880 -2 0 252 c0 139 1 241 3 226 l3 -28 1330 0 1329 0 0
875 0 875 -1329 0 c-1172 0 -1330 -2 -1335 -15 -3 -8 0 -15 6 -15 7 0 6 -5 -2
-15 -10 -12 -10 -15 1 -15 12 0 12 -2 1 -9 -18 -11 -18 -12 -3 -38 9 -17 9
-23 0 -23 -8 0 -9 -4 0 -13 6 -8 8 -17 5 -20 -11 -10 -10 -167 1 -167 6 0 4
-4 -3 -9 -15 -9 -15 -17 -1 -43 6 -11 5 -19 -2 -24 -8 -4 -7 -9 2 -15 8 -5 9
-9 3 -9 -6 0 -10 -10 -9 -22 1 -13 0 -15 -2 -5 -4 16 -54 17 -878 17 -480 0
-875 -3 -878 -7 -2 -5 -2 -2 -1 5 2 6 -2 12 -8 12 -7 0 -6 6 3 16 10 13 10 17
-2 25 -12 7 -12 9 1 9 12 0 13 2 1 9 -11 7 -11 9 0 14 11 4 11 6 1 6 -7 1 -11
5 -7 10 8 15 14 91 6 91 -4 0 -7 9 -7 20 0 11 3 20 6 20 3 0 6 9 7 20 1 11 -3
20 -8 20 -6 0 -5 9 2 21 8 16 8 20 -1 14 -9 -6 -9 -2 0 15 7 12 8 25 4 29 -11
8 -14 41 -5 41 12 0 9 34 -3 42 -6 4 -606 8 -1333 8 l-1323 0 0 -875z m2670
389 c0 -8 -5 -12 -10 -9 -6 4 -8 11 -5 16 9 14 15 11 15 -7z m1765 -14 c3 -5
1 -10 -4 -10 -6 0 -11 5 -11 10 0 6 2 10 4 10 3 0 8 -4 11 -10z m-1765 -31 c0
-11 -4 -18 -10 -14 -5 3 -7 12 -3 20 7 21 13 19 13 -6z m1762 -41 c2 -21 0
-38 -4 -38 -4 0 -8 21 -7 48 1 52 6 48 11 -10z m-1762 -4 c0 -8 -5 -12 -10 -9
-6 4 -8 11 -5 16 9 14 15 11 15 -7z m0 -55 c0 -11 -4 -18 -10 -14 -5 3 -7 12
-3 20 7 21 13 19 13 -6z m1762 -14 c3 -14 1 -25 -3 -25 -5 0 -9 11 -9 25 0 14
2 25 4 25 2 0 6 -11 8 -25z m-1764 -55 c-1 -22 -3 -38 -6 -36 -7 8 -8 76 0 76
4 0 7 -18 6 -40z m1759 -12 c-3 -7 -5 -2 -5 12 0 14 2 19 5 13 2 -7 2 -19 0
-25z m8 -28 c3 -5 1 -10 -4 -10 -6 0 -11 5 -11 10 0 6 2 10 4 10 3 0 8 -4 11
-10z m-1765 -31 c0 -11 -4 -18 -10 -14 -5 3 -7 12 -3 20 7 21 13 19 13 -6z
m1203 -84 c164 -36 300 -65 303 -65 2 0 4 -7 4 -16 0 -10 -6 -14 -17 -10 -58
16 -590 126 -614 126 -22 0 -487 -94 -616 -125 -16 -4 -23 -1 -23 9 0 10 18
18 53 26 28 6 171 37 317 68 146 32 272 57 280 55 8 -2 149 -32 313 -68z m559
35 c-2 -16 -6 -30 -8 -30 -2 0 -4 14 -4 30 0 17 4 30 8 30 5 0 7 -13 4 -30z
m-1762 -11 c0 -16 -4 -28 -9 -25 -8 5 -3 56 5 56 2 0 4 -14 4 -31z m1762 -54
c3 -14 1 -25 -3 -25 -5 0 -9 11 -9 25 0 14 2 25 4 25 2 0 6 -11 8 -25z m-1762
-32 c0 -21 -3 -24 -9 -14 -5 8 -7 20 -4 28 8 21 13 15 13 -14z m1757 -35 c-3
-7 -5 -2 -5 12 0 14 2 19 5 13 2 -7 2 -19 0 -25z m-1757 -14 c0 -8 -5 -12 -10
-9 -6 4 -8 11 -5 16 9 14 15 11 15 -7z m1765 -14 c3 -5 1 -10 -4 -10 -6 0 -11
5 -11 10 0 6 2 10 4 10 3 0 8 -4 11 -10z m-1765 -31 c0 -11 -4 -18 -10 -14 -5
3 -7 12 -3 20 7 21 13 19 13 -6z m1762 -49 c-2 -16 -6 -30 -8 -30 -2 0 -4 14
-4 30 0 17 4 30 8 30 5 0 7 -13 4 -30z m-1762 4 c0 -8 -5 -12 -10 -9 -6 4 -8
11 -5 16 9 14 15 11 15 -7z m-2 -55 c-1 -17 -4 -25 -8 -18 -7 10 -2 49 5 49 2
0 3 -14 3 -31z m1764 -14 c3 -14 1 -25 -3 -25 -5 0 -9 11 -9 25 0 14 2 25 4
25 2 0 6 -11 8 -25z m-5 -67 c-3 -7 -5 -2 -5 12 0 14 2 19 5 13 2 -7 2 -19 0
-25z m-1757 2 c0 -11 -2 -20 -4 -20 -2 0 -6 9 -9 20 -3 11 -1 20 4 20 5 0 9
-9 9 -20z m1765 -30 c3 -5 1 -10 -4 -10 -6 0 -11 5 -11 10 0 6 2 10 4 10 3 0
8 -4 11 -10z m-1765 -27 c0 -14 -3 -23 -7 -19 -10 10 -11 46 -1 46 4 0 8 -12
8 -27z m344 -15 c3 -13 6 -161 6 -330 l0 -308 -30 0 -30 0 0 330 0 330 24 0
c16 0 26 -7 30 -22z m226 -308 l0 -330 -25 0 -25 0 0 330 0 330 25 0 25 0 0
-330z m220 0 l0 -330 -25 0 -25 0 0 330 0 330 25 0 25 0 0 -330z m223 163 c4
-91 7 -240 7 -330 l0 -163 -30 0 -30 0 0 330 0 330 23 0 c24 0 24 0 30 -167z
m227 -163 l0 -330 -30 0 -30 0 0 233 c0 127 3 276 7 330 6 93 7 97 30 97 l23
0 0 -330z m220 0 l0 -330 -25 0 -25 0 0 330 0 330 25 0 25 0 0 -330z m302 270
c-2 -16 -6 -30 -8 -30 -2 0 -4 14 -4 30 0 17 4 30 8 30 5 0 7 -13 4 -30z
m-1762 4 c0 -8 -5 -12 -10 -9 -6 4 -8 11 -5 16 9 14 15 11 15 -7z m0 -59 c0
-19 -4 -35 -8 -35 -4 0 -6 16 -4 35 2 19 6 35 8 35 2 0 4 -16 4 -35z m1764 0
c3 -8 1 -15 -4 -15 -6 0 -10 7 -10 15 0 8 2 15 4 15 2 0 6 -7 10 -15z m0 -40
c3 -8 1 -15 -4 -15 -6 0 -10 7 -10 15 0 8 2 15 4 15 2 0 6 -7 10 -15z m-2 -50
c3 -14 1 -25 -3 -25 -5 0 -9 11 -9 25 0 14 2 25 4 25 2 0 6 -11 8 -25z m-1762
-1 c0 -8 -5 -12 -10 -9 -6 4 -8 11 -5 16 9 14 15 11 15 -7z m0 -45 c0 -11 -4
-18 -10 -14 -5 3 -7 12 -3 20 7 21 13 19 13 -6z m1757 -21 c-3 -7 -5 -2 -5 12
0 14 2 19 5 13 2 -7 2 -19 0 -25z m-1757 -24 c0 -8 -5 -12 -10 -9 -6 4 -8 11
-5 16 9 14 15 11 15 -7z m1765 -4 c3 -5 1 -10 -4 -10 -6 0 -11 5 -11 10 0 6 2
10 4 10 3 0 8 -4 11 -10z m-1767 -51 c-1 -17 -4 -25 -8 -18 -7 10 -2 49 5 49
2 0 3 -14 3 -31z m1764 -29 c-2 -16 -6 -30 -8 -30 -2 0 -4 14 -4 30 0 17 4 30
8 30 5 0 7 -13 4 -30z m-1762 -50 c0 -11 -2 -20 -4 -20 -2 0 -6 9 -9 20 -3 11
-1 20 4 20 5 0 9 -9 9 -20z m1765 1 c3 -5 1 -12 -5 -16 -5 -3 -10 1 -10 9 0
18 6 21 15 7z"/>
</g>
</svg>
